<svg width="46" height="46" viewBox="0 0 46 46" fill="none" xmlns="http://www.w3.org/2000/svg">
<g filter="url(#filter0_d_1_5841)">
<path d="M16 13V15.5455C22.3191 15.5455 27.4545 20.6809 27.4545 27H30C30 19.2682 23.7318 13 16 13ZM16 17.4545V20C19.8627 20 23 23.1373 23 27H25.5455C25.5455 21.7309 21.2691 17.4545 16 17.4545ZM17.9091 23.1818C17.4028 23.1818 16.9172 23.383 16.5592 23.741C16.2011 24.099 16 24.5846 16 25.0909C16 25.5972 16.2011 26.0828 16.5592 26.4408C16.9172 26.7989 17.4028 27 17.9091 27C18.4154 27 18.901 26.7989 19.259 26.4408C19.617 26.0828 19.8182 25.5972 19.8182 25.0909C19.8182 24.5846 19.617 24.099 19.259 23.741C18.901 23.383 18.4154 23.1818 17.9091 23.1818Z" fill="white"/>
</g>
<defs>
<filter id="filter0_d_1_5841" x="-7" y="-8" width="61" height="61" filterUnits="userSpaceOnUse" color-interpolation-filters="sRGB">
<feFlood flood-opacity="0" result="BackgroundImageFix"/>
<feColorMatrix in="SourceAlpha" type="matrix" values="0 0 0 0 0 0 0 0 0 0 0 0 0 0 0 0 0 0 127 0" result="hardAlpha"/>
<feOffset dy="3"/>
<feGaussianBlur stdDeviation="8"/>
<feComposite in2="hardAlpha" operator="out"/>
<feColorMatrix type="matrix" values="0 0 0 0 0.164706 0 0 0 0 0.52549 0 0 0 0 0.898039 0 0 0 0.08 0"/>
<feBlend mode="normal" in2="BackgroundImageFix" result="effect1_dropShadow_1_5841"/>
<feBlend mode="normal" in="SourceGraphic" in2="effect1_dropShadow_1_5841" result="shape"/>
</filter>
</defs>
</svg>
