<svg width="64" height="58" viewBox="0 0 64 58" fill="none" xmlns="http://www.w3.org/2000/svg">
<g filter="url(#filter0_d_1_4967)">
<path fill-rule="evenodd" clip-rule="evenodd" d="M40.6528 17.9398C41.5903 18.1913 42.3285 18.9323 42.5791 19.8734C43.0344 21.5791 43.0344 25.1378 43.0344 25.1378C43.0344 25.1378 43.0344 28.6965 42.5791 30.4024C42.3285 31.3433 41.5903 32.0844 40.6528 32.336C38.9537 32.793 32.1405 32.793 32.1405 32.793C32.1405 32.793 25.3273 32.793 23.6281 32.336C22.6907 32.0844 21.9524 31.3433 21.7019 30.4024C21.2466 28.6965 21.2466 25.1378 21.2466 25.1378C21.2466 25.1378 21.2466 21.5791 21.7019 19.8734C21.9524 18.9323 22.6907 18.1913 23.6281 17.9398C25.3273 17.4827 32.1405 17.4827 32.1405 17.4827C32.1405 17.4827 38.9537 17.4827 40.6528 17.9398ZM35.6043 25.138L29.9097 28.3689V21.9068L35.6043 25.138Z" fill="#0DD0BA"/>
</g>
<defs>
<filter id="filter0_d_1_4967" x="-6.81956" y="-10.5862" width="77.8276" height="77.8276" filterUnits="userSpaceOnUse" color-interpolation-filters="sRGB">
<feFlood flood-opacity="0" result="BackgroundImageFix"/>
<feColorMatrix in="SourceAlpha" type="matrix" values="0 0 0 0 0 0 0 0 0 0 0 0 0 0 0 0 0 0 127 0" result="hardAlpha"/>
<feOffset dy="3.82759"/>
<feGaussianBlur stdDeviation="10.2069"/>
<feComposite in2="hardAlpha" operator="out"/>
<feColorMatrix type="matrix" values="0 0 0 0 0.164706 0 0 0 0 0.52549 0 0 0 0 0.898039 0 0 0 0.08 0"/>
<feBlend mode="normal" in2="BackgroundImageFix" result="effect1_dropShadow_1_4967"/>
<feBlend mode="normal" in="SourceGraphic" in2="effect1_dropShadow_1_4967" result="shape"/>
</filter>
</defs>
</svg>
