<svg width="60" height="60" viewBox="0 0 60 60" fill="none" xmlns="http://www.w3.org/2000/svg">
<g filter="url(#filter0_d_1_4965)">
<path d="M26.3792 17.2692C25.4289 17.3141 24.78 17.4657 24.2127 17.6887C23.6256 17.9175 23.1279 18.2245 22.6328 18.7214C22.1376 19.2184 21.8327 19.7164 21.6055 20.3044C21.3856 20.8729 21.2367 21.5224 21.1947 22.4732C21.1527 23.424 21.1434 23.7296 21.1481 26.1549C21.1527 28.5803 21.1634 28.8843 21.2095 29.837C21.2549 30.7871 21.406 31.4359 21.6289 32.0034C21.8581 32.5905 22.1648 33.088 22.6619 33.5833C23.159 34.0786 23.6566 34.3828 24.2461 34.6103C24.8141 34.8299 25.4638 34.9796 26.4144 35.0212C27.365 35.0628 27.671 35.0724 30.0956 35.0678C32.5202 35.0631 32.8255 35.0524 33.7781 35.0072C34.7307 34.962 35.3761 34.8099 35.9437 34.588C36.5308 34.3583 37.0287 34.0521 37.5236 33.5549C38.0186 33.0576 38.3233 32.5592 38.5504 31.9709C38.7704 31.4028 38.9199 30.7532 38.9612 29.8033C39.0028 28.85 39.0126 28.5456 39.008 26.1206C39.0033 23.6957 38.9924 23.3917 38.9473 22.4393C38.9021 21.4869 38.7508 20.8401 38.528 20.2722C38.2985 19.6851 37.9922 19.188 37.4952 18.6923C36.9983 18.1967 36.4996 17.8921 35.9114 17.6656C35.343 17.4457 34.6937 17.2959 33.7431 17.2548C32.7925 17.2137 32.4865 17.2032 30.061 17.2078C27.6354 17.2124 27.3318 17.2228 26.3792 17.2692ZM26.4835 33.4145C25.6127 33.3766 25.1399 33.2319 24.8248 33.1108C24.4076 32.9501 24.1103 32.7557 23.7963 32.4447C23.4823 32.1338 23.2894 31.8355 23.1265 31.4191C23.0041 31.104 22.8568 30.6317 22.816 29.761C22.7717 28.8198 22.7624 28.5372 22.7573 26.1528C22.7521 23.7684 22.7612 23.4862 22.8025 22.5447C22.8396 21.6746 22.9852 21.2012 23.1061 20.8863C23.2669 20.4685 23.4605 20.1718 23.7722 19.858C24.0839 19.5442 24.3813 19.3509 24.798 19.188C25.1128 19.0651 25.585 18.919 26.4555 18.8776C27.3973 18.8329 27.6796 18.824 30.0636 18.8188C32.4477 18.8136 32.7307 18.8225 33.6729 18.864C34.543 18.9018 35.0165 19.046 35.331 19.1676C35.7485 19.3284 36.0455 19.5215 36.3594 19.8337C36.6732 20.1459 36.8667 20.4423 37.0296 20.8599C37.1526 21.1737 37.2987 21.6458 37.3398 22.5168C37.3847 23.4587 37.3948 23.7411 37.3991 26.1249C37.4034 28.5088 37.395 28.7919 37.3538 29.7331C37.3157 30.6039 37.1714 31.0769 37.0501 31.3923C36.8893 31.8094 36.6955 32.1068 36.3837 32.4204C36.0718 32.7341 35.7747 32.9274 35.3578 33.0903C35.0435 33.213 34.5706 33.3595 33.7009 33.4009C32.7591 33.4452 32.4768 33.4545 30.0919 33.4597C27.7069 33.4648 27.4256 33.4552 26.4837 33.4145M33.7643 21.3645C33.7647 21.5765 33.8279 21.7836 33.946 21.9597C34.0641 22.1357 34.2317 22.2728 34.4277 22.3536C34.6237 22.4344 34.8392 22.4552 35.047 22.4135C35.2549 22.3717 35.4457 22.2693 35.5953 22.1191C35.7449 21.969 35.8466 21.7778 35.8876 21.5698C35.9286 21.3618 35.9069 21.1464 35.8254 20.9507C35.7439 20.755 35.6062 20.5879 35.4298 20.4704C35.2533 20.353 35.0459 20.2906 34.8339 20.291C34.5498 20.2916 34.2774 20.405 34.0769 20.6063C33.8763 20.8076 33.7639 21.0803 33.7643 21.3645ZM25.4923 26.1467C25.4973 28.6796 27.5544 30.7282 30.0867 30.7234C32.619 30.7185 34.6691 28.6617 34.6642 26.1289C34.6594 23.596 32.6019 21.5469 30.0692 21.5519C27.5365 21.5569 25.4875 23.6142 25.4923 26.1467ZM27.101 26.1435C27.0998 25.5547 27.2733 24.9788 27.5995 24.4885C27.9256 23.9983 28.3898 23.6158 28.9334 23.3894C29.4769 23.163 30.0754 23.1029 30.6531 23.2166C31.2309 23.3303 31.7619 23.6128 32.1791 24.0283C32.5962 24.4439 32.8808 24.9738 32.9968 25.551C33.1129 26.1283 33.0551 26.727 32.8308 27.2715C32.6066 27.8159 32.2259 28.2816 31.737 28.6097C31.2481 28.9378 30.6728 29.1135 30.084 29.1147C29.693 29.1155 29.3057 29.0393 28.9442 28.8904C28.5827 28.7416 28.2541 28.5229 27.977 28.247C27.7 27.9711 27.4801 27.6433 27.3298 27.2824C27.1795 26.9215 27.1017 26.5345 27.101 26.1435Z" fill="#0DD0BA"/>
</g>
<defs>
<filter id="filter0_d_1_4965" x="-8.19846" y="-9.58621" width="77.8276" height="77.8276" filterUnits="userSpaceOnUse" color-interpolation-filters="sRGB">
<feFlood flood-opacity="0" result="BackgroundImageFix"/>
<feColorMatrix in="SourceAlpha" type="matrix" values="0 0 0 0 0 0 0 0 0 0 0 0 0 0 0 0 0 0 127 0" result="hardAlpha"/>
<feOffset dy="3.82759"/>
<feGaussianBlur stdDeviation="10.2069"/>
<feComposite in2="hardAlpha" operator="out"/>
<feColorMatrix type="matrix" values="0 0 0 0 0.164706 0 0 0 0 0.52549 0 0 0 0 0.898039 0 0 0 0.08 0"/>
<feBlend mode="normal" in2="BackgroundImageFix" result="effect1_dropShadow_1_4965"/>
<feBlend mode="normal" in="SourceGraphic" in2="effect1_dropShadow_1_4965" result="shape"/>
</filter>
</defs>
</svg>
