<svg width="46" height="46" viewBox="0 0 46 46" fill="none" xmlns="http://www.w3.org/2000/svg">
<g filter="url(#filter0_d_1_5547)">
<path d="M20.1009 13.049C19.3561 13.0841 18.8475 13.203 18.4029 13.3777C17.9427 13.557 17.5526 13.7977 17.1645 14.1872C16.7765 14.5766 16.5375 14.967 16.3594 15.4278C16.1871 15.8735 16.0703 16.3825 16.0374 17.1277C16.0045 17.873 15.9972 18.1125 16.0009 20.0134C16.0045 21.9143 16.0129 22.1526 16.049 22.8994C16.0846 23.6441 16.203 24.1525 16.3777 24.5973C16.5574 25.0575 16.7977 25.4474 17.1874 25.8356C17.577 26.2238 17.967 26.4623 18.429 26.6406C18.8742 26.8127 19.3834 26.93 20.1285 26.9626C20.8736 26.9952 21.1134 27.0028 23.0138 26.9992C24.9142 26.9955 25.1534 26.9871 25.9001 26.9517C26.6467 26.9163 27.1525 26.797 27.5974 26.6231C28.0576 26.4431 28.4478 26.2031 28.8358 25.8134C29.2237 25.4236 29.4625 25.033 29.6405 24.5718C29.813 24.1266 29.9302 23.6175 29.9625 22.8729C29.9951 22.1257 30.0028 21.8872 29.9992 19.9865C29.9955 18.0859 29.987 17.8476 29.9516 17.1011C29.9162 16.3546 29.7976 15.8477 29.623 15.4026C29.4431 14.9425 29.203 14.5528 28.8135 14.1643C28.424 13.7758 28.0331 13.5371 27.5721 13.3596C27.1266 13.1873 26.6177 13.0698 25.8726 13.0376C25.1275 13.0054 24.8877 12.9972 22.9866 13.0008C21.0856 13.0044 20.8476 13.0126 20.1009 13.049ZM20.1827 25.7033C19.5002 25.6736 19.1296 25.5602 18.8826 25.4653C18.5556 25.3393 18.3226 25.187 18.0765 24.9433C17.8304 24.6995 17.6792 24.4657 17.5515 24.1394C17.4556 23.8924 17.3401 23.5223 17.3082 22.8398C17.2735 22.1021 17.2662 21.8806 17.2621 20.0117C17.2581 18.1429 17.2652 17.9217 17.2975 17.1837C17.3267 16.5018 17.4408 16.1308 17.5355 15.884C17.6615 15.5565 17.8133 15.324 18.0576 15.078C18.3019 14.832 18.535 14.6805 18.8616 14.5528C19.1083 14.4565 19.4785 14.342 20.1607 14.3095C20.8989 14.2745 21.1201 14.2675 22.9887 14.2635C24.8573 14.2594 25.0791 14.2664 25.8176 14.2989C26.4996 14.3286 26.8707 14.4415 27.1172 14.5369C27.4444 14.6629 27.6772 14.8142 27.9232 15.0589C28.1692 15.3037 28.3208 15.5359 28.4485 15.8632C28.545 16.1092 28.6595 16.4792 28.6917 17.1619C28.7268 17.9001 28.7348 18.1215 28.7382 19.9899C28.7415 21.8583 28.735 22.0802 28.7026 22.8179C28.6728 23.5004 28.5597 23.8711 28.4646 24.1184C28.3386 24.4453 28.1867 24.6784 27.9423 24.9242C27.6978 25.1701 27.465 25.3215 27.1382 25.4492C26.8918 25.5454 26.5213 25.6602 25.8396 25.6927C25.1014 25.7274 24.8802 25.7347 23.0109 25.7387C21.1416 25.7428 20.9211 25.7352 20.1828 25.7033M25.8893 16.2587C25.8896 16.4249 25.9391 16.5872 26.0317 16.7252C26.1242 16.8632 26.2556 16.9707 26.4092 17.034C26.5628 17.0973 26.7318 17.1136 26.8947 17.0809C27.0576 17.0482 27.2071 16.9679 27.3244 16.8502C27.4416 16.7325 27.5214 16.5827 27.5535 16.4197C27.5856 16.2567 27.5686 16.0878 27.5047 15.9344C27.4409 15.781 27.3329 15.65 27.1946 15.558C27.0563 15.466 26.8938 15.417 26.7276 15.4173C26.5049 15.4178 26.2914 15.5067 26.1342 15.6645C25.977 15.8223 25.8889 16.036 25.8893 16.2587ZM19.4058 20.007C19.4097 21.9922 21.022 23.5979 23.0068 23.5941C24.9916 23.5903 26.5984 21.9782 26.5946 19.993C26.5908 18.0078 24.9782 16.4017 22.9931 16.4056C21.008 16.4095 19.402 18.0221 19.4058 20.007ZM20.6667 20.0045C20.6658 19.543 20.8017 19.0916 21.0574 18.7073C21.313 18.3231 21.6768 18.0233 22.1029 17.8458C22.5289 17.6684 22.998 17.6213 23.4508 17.7104C23.9036 17.7995 24.3198 18.0209 24.6468 18.3466C24.9738 18.6723 25.1968 19.0876 25.2877 19.5401C25.3787 19.9925 25.3334 20.4618 25.1576 20.8885C24.9819 21.3152 24.6835 21.6803 24.3003 21.9374C23.9171 22.1946 23.4662 22.3323 23.0047 22.3332C22.6983 22.3339 22.3947 22.2741 22.1114 22.1575C21.828 22.0408 21.5704 21.8694 21.3533 21.6531C21.1362 21.4369 20.9638 21.18 20.846 20.8971C20.7282 20.6142 20.6672 20.3109 20.6667 20.0045Z" fill="white"/>
</g>
<defs>
<filter id="filter0_d_1_5547" x="-7" y="-8" width="61" height="61" filterUnits="userSpaceOnUse" color-interpolation-filters="sRGB">
<feFlood flood-opacity="0" result="BackgroundImageFix"/>
<feColorMatrix in="SourceAlpha" type="matrix" values="0 0 0 0 0 0 0 0 0 0 0 0 0 0 0 0 0 0 127 0" result="hardAlpha"/>
<feOffset dy="3"/>
<feGaussianBlur stdDeviation="8"/>
<feComposite in2="hardAlpha" operator="out"/>
<feColorMatrix type="matrix" values="0 0 0 0 0.164706 0 0 0 0 0.52549 0 0 0 0 0.898039 0 0 0 0.08 0"/>
<feBlend mode="normal" in2="BackgroundImageFix" result="effect1_dropShadow_1_5547"/>
<feBlend mode="normal" in="SourceGraphic" in2="effect1_dropShadow_1_5547" result="shape"/>
</filter>
</defs>
</svg>
