<svg width="27" height="30" viewBox="0 0 27 30" fill="none" xmlns="http://www.w3.org/2000/svg">
<path d="M24.7153 24.5337C25.0407 24.2083 25.0407 23.6691 24.7153 23.3437L5.09512 3.72353C4.76974 3.39815 4.23053 3.39815 3.90515 3.72353L2.71519 4.9135C2.3898 5.23888 2.3898 5.77808 2.71518 6.10346L22.3354 25.7236C22.6607 26.049 23.2 26.049 23.5253 25.7236L24.7153 24.5337Z" fill="#2A86E5"/>
<path d="M3.90483 25.7239C4.23021 26.0493 4.76941 26.0493 5.0948 25.7239L24.715 6.1037C25.0404 5.77832 25.0404 5.23911 24.715 4.91373L23.525 3.72376C23.1996 3.39838 22.6604 3.39838 22.335 3.72376L2.71486 23.3439C2.38948 23.6693 2.38948 24.2085 2.71486 24.5339L3.90483 25.7239Z" fill="#2A86E5"/>
</svg>
