<svg width="50" height="44" viewBox="0 0 50 44" fill="none" xmlns="http://www.w3.org/2000/svg">
<g filter="url(#filter0_d_1_5549)">
<path fill-rule="evenodd" clip-rule="evenodd" d="M31.2103 13.3583C31.9451 13.5554 32.5237 14.1362 32.7201 14.8738C33.0769 16.2107 33.0769 19 33.0769 19C33.0769 19 33.0769 21.7893 32.7201 23.1262C32.5237 23.8638 31.9451 24.4446 31.2103 24.6418C29.8786 25 24.5385 25 24.5385 25C24.5385 25 19.1984 25 17.8666 24.6418C17.1319 24.4446 16.5532 23.8638 16.3568 23.1262C16 21.7893 16 19 16 19C16 19 16 16.2107 16.3568 14.8738C16.5532 14.1362 17.1319 13.5554 17.8666 13.3583C19.1984 13 24.5385 13 24.5385 13C24.5385 13 29.8786 13 31.2103 13.3583ZM27.2533 19.0001L22.79 21.5325V16.4675L27.2533 19.0001Z" fill="white"/>
</g>
<defs>
<filter id="filter0_d_1_5549" x="-6" y="-9" width="61" height="61" filterUnits="userSpaceOnUse" color-interpolation-filters="sRGB">
<feFlood flood-opacity="0" result="BackgroundImageFix"/>
<feColorMatrix in="SourceAlpha" type="matrix" values="0 0 0 0 0 0 0 0 0 0 0 0 0 0 0 0 0 0 127 0" result="hardAlpha"/>
<feOffset dy="3"/>
<feGaussianBlur stdDeviation="8"/>
<feComposite in2="hardAlpha" operator="out"/>
<feColorMatrix type="matrix" values="0 0 0 0 0.164706 0 0 0 0 0.52549 0 0 0 0 0.898039 0 0 0 0.08 0"/>
<feBlend mode="normal" in2="BackgroundImageFix" result="effect1_dropShadow_1_5549"/>
<feBlend mode="normal" in="SourceGraphic" in2="effect1_dropShadow_1_5549" result="shape"/>
</filter>
</defs>
</svg>
